<svg width="24" height="16" viewBox="0 0 24 16" fill="none" xmlns="http://www.w3.org/2000/svg">
<path id="icon-1" d="M9.68844 7.16059C9.68844 7.16059 11.9593 6.98416 11.9593 4.20917C11.9593 1.43059 10.1013 0.0791016 7.74643 0.0791016H0V15.5936H7.74643C7.74643 15.5936 12.4766 15.7484 12.4766 11.0134C12.4754 11.0122 12.6819 7.16059 9.68844 7.16059ZM3.41352 2.83488H7.74643C7.74643 2.83488 8.80025 2.83488 8.80025 4.44802C8.80025 6.06356 8.18092 6.29761 7.47758 6.29761H3.41352V2.83488ZM7.52679 12.8354H3.41352V8.68852H7.74643C7.74643 8.68852 9.31636 8.66691 9.31636 10.819C9.31636 12.6337 8.14372 12.8222 7.52679 12.8354ZM18.7828 4.02433C13.0564 4.02433 13.0612 9.98599 13.0612 9.98599C13.0612 9.98599 12.6699 15.9164 18.7828 15.9164C18.7828 15.9164 23.8754 16.2213 23.8754 11.7912H21.2565C21.2565 11.7912 21.3429 13.4607 18.8704 13.4607C18.8704 13.4607 16.249 13.6432 16.249 10.7602H23.9582C23.9594 10.759 24.8092 4.02433 18.7828 4.02433ZM21.1124 8.68852H16.2226C16.2226 8.68852 16.5419 6.29761 18.8416 6.29761C21.1413 6.29761 21.1124 8.68852 21.1124 8.68852ZM21.721 0.990093H15.5793V2.9033H21.721V0.990093Z"/>
</svg>
