<svg width="24" height="24" viewBox="0 0 24 24" fill="none" xmlns="http://www.w3.org/2000/svg">
<path id="icon-1" d="M12 0C5.37258 0 0 5.37258 0 12C0 18.6274 5.37258 24 12 24C18.6274 24 24 18.6274 24 12C24 5.37258 18.6274 0 12 0ZM12 1.7386C14.6144 1.7386 17.0003 2.71628 18.8123 4.32598C17.4811 6.0822 15.4579 7.25132 13.4316 8.04332C12.3267 6.02244 10.9666 3.8918 9.58208 2.02508C10.3574 1.83782 11.1672 1.7386 12 1.7386ZM7.6345 2.71124C8.97238 4.71172 10.2676 6.5678 11.4529 8.66868C8.45792 9.44452 5.07498 9.9099 1.94984 9.91792C2.60876 6.72034 4.75574 4.06664 7.6345 2.71124ZM19.9506 5.51216C21.3818 7.26396 22.245 9.49754 22.2606 11.9324C19.8874 11.4649 17.5269 11.3416 15.1231 11.5836C14.8523 10.9098 14.5256 10.2699 14.212 9.5798C16.2842 8.74404 18.4989 7.31358 19.9506 5.51216V5.51216ZM12.2857 10.2561C12.5429 10.8028 12.8404 11.3819 13.1193 11.9742C9.77728 13.4478 6.22302 15.4176 4.3769 18.8693C2.73692 17.0505 1.7386 14.6418 1.7386 12C1.7386 11.8997 1.7403 11.7995 1.74316 11.6998C5.32288 11.6825 8.8356 11.2345 12.2857 10.2561V10.2561ZM17.7082 13.0539C19.2003 13.0493 20.7407 13.2577 22.1337 13.6238C21.6781 16.4901 20.0354 18.9607 17.7257 20.5167C17.1746 18.0116 16.6497 15.6147 15.7219 13.1976C16.3618 13.1022 17.03 13.0561 17.7082 13.0539V13.0539ZM22.1869 13.2401C22.1799 13.2982 22.1729 13.3564 22.1649 13.4141C22.1729 13.3562 22.1799 13.2983 22.1869 13.2401ZM13.8222 13.6664C14.7686 16.1096 15.5113 18.8156 16.0084 21.4491C14.7769 21.9722 13.4224 22.2614 12 22.2614C9.62672 22.2614 7.44198 21.4554 5.70366 20.1026C7.56196 17.0869 10.4402 14.806 13.8222 13.6664V13.6664Z" />
</svg>
