<svg width="24" height="24" viewBox="0 0 24 24" fill="none" xmlns="http://www.w3.org/2000/svg">
    <path id="icon-1" d="M12 0.0439453C14.1771 0.0439453 16.1849 0.591818 18.0234 1.68756C19.862 2.78331 21.3177 4.27001 22.3906 6.14767C23.4635 8.02533 24 10.0759 24 12.2993C24 14.9695 23.237 17.3711 21.7109 19.5041C20.1849 21.637 18.2135 23.1131 15.7969 23.9322C15.5156 23.9854 15.3073 23.9482 15.1719 23.8205C15.0365 23.6929 14.9688 23.5333 14.9688 23.3418C14.9688 23.3099 14.9714 22.903 14.9766 22.1211C14.9818 21.3392 14.9844 20.6237 14.9844 19.9748C14.9844 18.9429 14.7135 18.1876 14.1719 17.7088C14.7656 17.645 15.2995 17.5493 15.7734 17.4216C16.2474 17.2939 16.737 17.0865 17.2422 16.7993C17.7474 16.512 18.1693 16.1583 18.5078 15.7381C18.8464 15.3179 19.1224 14.7594 19.3359 14.0626C19.5495 13.3658 19.6562 12.5652 19.6562 11.661C19.6562 10.395 19.2448 9.29927 18.4219 8.37373C18.8073 7.40565 18.7656 6.32054 18.2969 5.11841C18.0052 5.02267 17.5833 5.08118 17.0312 5.29395C16.4792 5.50671 16 5.74075 15.5938 5.99607L15 6.37905C14.0312 6.10246 13.0312 5.96416 12 5.96416C10.9688 5.96416 9.96875 6.10246 9 6.37905C8.83333 6.26203 8.61198 6.11841 8.33594 5.9482C8.0599 5.77799 7.625 5.5732 7.03125 5.33384C6.4375 5.09448 5.99479 5.02267 5.70312 5.11841C5.23438 6.32054 5.19271 7.40565 5.57812 8.37373C4.75521 9.29927 4.34375 10.395 4.34375 11.661C4.34375 12.5652 4.45052 13.3631 4.66406 14.0546C4.8776 14.7461 5.15104 15.3046 5.48438 15.7301C5.81771 16.1556 6.23698 16.512 6.74219 16.7993C7.2474 17.0865 7.73698 17.2939 8.21094 17.4216C8.6849 17.5493 9.21875 17.645 9.8125 17.7088C9.40625 18.0918 9.15104 18.6397 9.04688 19.3525C8.82812 19.4588 8.59375 19.5386 8.34375 19.5918C8.09375 19.645 7.79688 19.6716 7.45312 19.6716C7.10938 19.6716 6.76823 19.5572 6.42969 19.3285C6.09115 19.0998 5.80208 18.7674 5.5625 18.3312C5.36458 17.9908 5.11198 17.7142 4.80469 17.5014C4.4974 17.2886 4.23958 17.161 4.03125 17.1184L3.71875 17.0705C3.5 17.0705 3.34896 17.0945 3.26562 17.1424C3.18229 17.1902 3.15625 17.2514 3.1875 17.3259C3.21875 17.4003 3.26562 17.4748 3.32812 17.5493C3.39062 17.6237 3.45833 17.6876 3.53125 17.7408L3.64062 17.8205C3.86979 17.9269 4.09635 18.1291 4.32031 18.4269C4.54427 18.7248 4.70833 18.9961 4.8125 19.2408L4.96875 19.6078C5.10417 20.012 5.33333 20.3392 5.65625 20.5892C5.97917 20.8392 6.32812 20.9987 6.70312 21.0679C7.07812 21.137 7.4401 21.1743 7.78906 21.1796C8.13802 21.1849 8.42708 21.1663 8.65625 21.1237L9.01562 21.0599C9.01562 21.4642 9.01823 21.9349 9.02344 22.4721C9.02865 23.0094 9.03125 23.2993 9.03125 23.3418C9.03125 23.5333 8.96354 23.6929 8.82812 23.8205C8.69271 23.9482 8.48438 23.9854 8.20312 23.9322C5.78646 23.1131 3.8151 21.637 2.28906 19.5041C0.763021 17.3711 0 14.9695 0 12.2993C0 10.0759 0.536458 8.02533 1.60938 6.14767C2.68229 4.27001 4.13802 2.78331 5.97656 1.68756C7.8151 0.591818 9.82292 0.0439453 12 0.0439453ZM4.54688 17.645C4.57812 17.5705 4.54167 17.5067 4.4375 17.4535C4.33333 17.4216 4.26562 17.4322 4.23438 17.4854C4.20312 17.5599 4.23958 17.6237 4.34375 17.6769C4.4375 17.7408 4.50521 17.7301 4.54688 17.645ZM5.03125 18.1876C5.10417 18.1344 5.09375 18.0493 5 17.9322C4.89583 17.8365 4.8125 17.8205 4.75 17.8844C4.67708 17.9376 4.6875 18.0227 4.78125 18.1397C4.88542 18.2461 4.96875 18.262 5.03125 18.1876ZM5.5 18.9056C5.59375 18.8312 5.59375 18.7301 5.5 18.6025C5.41667 18.4642 5.32812 18.4322 5.23438 18.5067C5.14062 18.5599 5.14062 18.6556 5.23438 18.7939C5.32812 18.9322 5.41667 18.9695 5.5 18.9056ZM6.15625 19.5759C6.23958 19.4908 6.21875 19.3897 6.09375 19.2727C5.96875 19.145 5.86458 19.1291 5.78125 19.2248C5.6875 19.3099 5.70833 19.411 5.84375 19.528C5.96875 19.6556 6.07292 19.6716 6.15625 19.5759ZM7.04688 19.9748C7.07812 19.8578 7.01042 19.7727 6.84375 19.7195C6.6875 19.6769 6.58854 19.7142 6.54688 19.8312C6.50521 19.9482 6.57292 20.028 6.75 20.0705C6.90625 20.1344 7.00521 20.1025 7.04688 19.9748ZM8.03125 20.0546C8.03125 19.9163 7.94271 19.8578 7.76562 19.8791C7.59896 19.8791 7.51562 19.9376 7.51562 20.0546C7.51562 20.1929 7.60417 20.2514 7.78125 20.2301C7.94792 20.2301 8.03125 20.1716 8.03125 20.0546ZM8.9375 19.895C8.91667 19.778 8.82292 19.7301 8.65625 19.7514C8.48958 19.7833 8.41667 19.8631 8.4375 19.9908C8.45833 20.1184 8.55208 20.161 8.71875 20.1184C8.88542 20.0759 8.95833 20.0014 8.9375 19.895Z" />
</svg>
